<svg xmlns="http://www.w3.org/2000/svg" viewBox="0 0 509.74 325.29"><defs><style>.cls-1{fill:#1d1d1b;}</style></defs><g id="Calque_2" data-name="Calque 2"><g id="Calque_1-2" data-name="Calque 1"><path class="cls-1" d="M214.18,198.64l45.23,26.11-4.59,5.05a100,100,0,1,1,0-134.3l4.59,5-45.23,26.11-2.93-2.33a48.38,48.38,0,0,0-30.41-10.64,49,49,0,1,0,0,97.91A48.37,48.37,0,0,0,211.25,201Z"/><path class="cls-1" d="M386.78,198.64,432,224.75l-4.59,5.05a100,100,0,1,1,0-134.3l4.59,5-45.23,26.11-2.93-2.33a48.38,48.38,0,0,0-30.41-10.64,49,49,0,1,0,0,97.91A48.37,48.37,0,0,0,383.85,201Z"/><path class="cls-1" d="M509.74,274.29v51H162.65c-2.62,0-5.31-.07-8-.2-1.75-.08-3.49-.2-5.22-.34a162.65,162.65,0,0,1,0-324.21C151.16.4,152.9.29,154.65.2c2.56-.13,5.26-.2,8-.2H412.32V51H162.65a111.65,111.65,0,1,0,0,223.29Z"/><path class="cls-1" d="M162.65,0c-2.74,0-5.44.07-8,.2-1.75.09-3.49.2-5.23.34V0Z"/><path class="cls-1" d="M162.65,325.29H149.42v-.54c1.73.14,3.47.26,5.22.34C157.34,325.22,160,325.29,162.65,325.29Z"/></g></g></svg>